<svg width="17" height="16" viewBox="0 0 17 16" fill="none" xmlns="http://www.w3.org/2000/svg">
<path d="M11.4565 8.3635H1.82113e-05L0 7.99987L1.82113e-05 7.63623H11.4565C11.6605 7.63623 11.8261 7.79914 11.8261 7.99987C11.8261 8.20059 11.6605 8.3635 11.4565 8.3635Z" fill="white"/>
<path d="M8.50012 11.2729C8.40551 11.2729 8.3109 11.2373 8.23847 11.1668C8.09434 11.0249 8.09434 10.7944 8.23847 10.6526L10.9341 8.00021L8.23921 5.34857C8.09508 5.20675 8.09508 4.97621 8.23921 4.83439C8.38334 4.69257 8.61764 4.69257 8.76177 4.83439L11.7183 7.74348C11.8624 7.8853 11.8624 8.11585 11.7183 8.25766L8.76177 11.1668C8.68934 11.2373 8.59473 11.2729 8.50012 11.2729Z" fill="white"/>
<path d="M8.86957 16C5.42892 16 2.34822 13.8567 1.2033 10.6669C1.1353 10.4771 1.23656 10.2698 1.42874 10.2029C1.62165 10.1375 1.8323 10.2356 1.9003 10.4247C2.941 13.3244 5.74157 15.2727 8.86957 15.2727C12.9451 15.2727 16.2609 12.0102 16.2609 8C16.2609 3.98982 12.9451 0.727273 8.86957 0.727273C5.74157 0.727273 2.941 2.67564 1.90104 5.576C1.83304 5.76509 1.62165 5.86327 1.42948 5.79782C1.2373 5.73091 1.13604 5.52364 1.20404 5.33382C2.34822 2.14327 5.42892 0 8.86957 0C13.3524 0 17 3.58909 17 8C17 12.4109 13.3524 16 8.86957 16Z" fill="white"/>
</svg>
